<svg width="32" height="32" viewBox="0 0 32 32" fill="none" xmlns="http://www.w3.org/2000/svg">
<path d="M14 10L20 16L14 22" stroke="#796AE1" stroke-width="3" stroke-linecap="round" stroke-linejoin="round"/>
<path d="M29 16C29 8.8203 23.1797 3 16 3L16 -3C26.4934 -3 35 5.50659 35 16L29 16ZM16 29C23.1797 29 29 23.1797 29 16L35 16C35 26.4934 26.4934 35 16 35L16 29ZM3 16C3 23.1797 8.8203 29 16 29L16 35C5.50659 35 -3 26.4934 -3 16L3 16ZM-3 16C-3 5.50659 5.50659 -3 16 -3L16 3C8.8203 3 3 8.8203 3 16L-3 16Z" fill="#796AE1"/>
</svg>
