<svg width="139" height="84" viewBox="0 0 139 84" fill="none" xmlns="http://www.w3.org/2000/svg">
<path d="M52.4758 74.3345C47.6902 74.9105 42.7131 72.7986 40.0332 68.7667C39.076 67.4227 38.5018 66.0788 38.1189 64.3508L36.3961 56.8631C37.1618 54.3672 38.8846 48.9913 39.6503 46.4954C37.9275 44.7675 34.099 40.9276 32.3761 39.1997L30.8447 32.8639C30.4619 31.3279 30.4619 29.792 30.8447 28.448C31.6104 25.5681 33.7161 23.0722 36.3961 21.7282C37.7361 20.9602 39.2675 20.3843 40.9903 20.1923L94.5893 12.1285C95.1636 12.1285 95.5465 11.9365 96.1207 12.1285C99.375 12.1285 102.629 13.8565 104.735 16.3524C106.266 17.8883 107.798 21.7282 108.755 23.4562C108.755 25.1841 108.755 28.64 108.755 30.3679C110.286 31.7119 113.54 34.5918 115.072 35.9358C116.22 38.2397 118.709 42.4636 118.9 44.9595C119.283 47.4554 118.709 49.9513 117.178 51.6792C116.412 52.6392 115.455 53.2152 114.306 53.5992L55.9214 73.5665C54.7729 73.9505 53.6243 74.1425 52.4758 74.3345ZM95.5465 6.94471C94.3979 6.75271 93.4408 6.94471 92.2922 6.94471L39.4589 13.8565C34.2904 14.4325 29.5048 16.9284 26.0591 20.5763C22.6135 24.4161 21.0821 29.216 22.0392 34.3998L23.762 42.8475L29.6962 48.7993L26.8248 57.2471L28.7391 67.0388C31.2276 80.2863 46.3502 87.3901 58.41 82.3982L117.369 59.743C119.283 58.975 120.815 57.823 122.155 56.2871C124.643 53.2152 125.409 49.1833 124.835 45.1515C124.452 43.0395 123.877 40.9276 122.729 39.0077L119.475 32.6719L114.689 28.448L114.498 23.2642L111.626 17.5044C108.181 11.9365 102.055 7.52069 95.5465 6.94471Z" fill="#796AE1"/>
<path d="M6.53376 43.9994C3.66238 43.9994 0.408152 46.3033 0.599578 49.3752C0.791003 50.9112 2.13098 52.0631 3.47096 52.4471C6.34233 53.2151 9.78799 51.6792 10.7451 48.7992C11.7022 45.9193 9.02229 43.8074 6.53376 43.9994ZM5.38521 18.0802C3.85381 18.0802 2.13098 18.4642 0.982428 19.6162C-1.88895 22.8801 2.13098 25.76 5.38521 24.992C10.5537 24.224 11.128 18.4642 5.38521 18.0802ZM25.102 2.52876C22.9963 2.14477 19.9335 3.87271 21.0821 6.36863C22.2306 8.48056 25.6763 8.86455 27.5905 7.52059C30.4619 5.60066 27.782 2.72075 25.102 2.52876ZM50.1787 0.0328365C47.1159 -0.351151 45.3931 2.72075 48.073 4.64069C49.6044 5.79265 53.0501 5.79265 53.6244 3.48872C53.8158 1.56879 51.7101 0.22483 50.1787 0.0328365Z" fill="#796AE1"/>
<path d="M110.861 72.9905C107.798 73.3745 107.606 77.5984 109.521 79.7103C111.243 82.0142 114.498 81.8222 115.263 78.9423C115.646 76.0624 113.732 72.6065 110.861 72.9905ZM129.812 64.1588C127.323 64.5428 127.514 67.8067 128.663 69.5346C129.812 71.2626 132.683 72.4145 133.64 69.9186C134.597 67.6147 132.492 64.1588 129.812 64.1588ZM135.171 46.1114C132.683 46.3034 133.257 49.7593 134.789 50.9112C136.129 52.4472 138.809 52.8312 139 50.3353C139 48.4153 137.277 46.3034 135.171 46.1114ZM126.175 27.104C125.026 27.104 124.26 28.064 124.452 29.2159C124.835 30.7519 126.366 32.4798 128.089 32.2878C129.237 32.2878 129.812 31.1359 129.62 30.1759C129.237 28.64 127.706 27.296 126.175 27.104Z" fill="#796AE1"/>
<path d="M58.0271 29.4078L46.733 29.2158C44.4359 29.2158 41.9474 30.7518 41.9474 33.2477V37.0876C42.1388 42.0794 50.3701 42.0794 50.5616 37.0876V36.3196H54.0072L48.2645 57.6309C47.6902 59.3588 48.4559 61.2788 49.9873 62.2388C52.6672 64.1587 56.6872 62.6227 57.4529 59.3588L62.8128 34.3997C63.1956 31.7117 60.5157 29.4078 58.0271 29.4078Z" fill="#796AE1"/>
<path d="M80.8067 24.032L71.044 23.648C69.1298 23.456 67.0241 24.992 67.4069 27.1039L67.7898 30.5598C68.3641 35.1677 76.0211 35.1677 74.8725 29.9838H77.7439L74.8725 48.6072C74.1068 53.5991 81.7638 55.711 82.721 50.3352L85.2095 28.4479C85.4009 26.144 83.1038 24.032 80.8067 24.032Z" fill="#796AE1"/>
<path d="M99.9493 19.4242L91.5266 19.0402C89.8037 18.8482 88.2723 20.3842 88.6552 22.1121L89.2295 25.184C89.6123 27.2959 92.1009 28.8319 94.2065 28.0639C95.5465 27.4879 95.7379 26.144 95.3551 24.8H97.8436L96.8865 41.3115C96.8865 42.4634 97.2693 43.6154 98.035 44.3834C99.7579 46.4953 103.586 46.1113 103.586 43.0394C103.586 42.6554 103.969 23.84 103.969 23.2641C103.969 21.1521 102.055 19.4242 99.9493 19.4242Z" fill="#796AE1"/>
</svg>
