<svg width="75" height="45" viewBox="0 0 75 45" fill="none" xmlns="http://www.w3.org/2000/svg">
<path d="M28.3143 39.822C25.7321 40.1306 23.0466 38.9992 21.6006 36.8393C21.0842 36.1193 20.7743 35.3993 20.5677 34.4736L19.6382 30.4623C20.0513 29.1252 20.9809 26.2453 21.394 24.9082C20.4645 23.9825 18.3987 21.9255 17.4691 20.9998L16.6428 17.6056C16.4363 16.7828 16.4363 15.9599 16.6428 15.24C17.056 13.6972 18.1921 12.3601 19.6382 11.6401C20.3612 11.2287 21.1875 10.9201 22.1171 10.8173L51.0374 6.4974C51.3473 6.4974 51.5538 6.39455 51.8637 6.4974C53.6196 6.4974 55.3755 7.42308 56.5116 8.76018C57.3379 9.58301 58.1642 11.6401 58.6806 12.5658C58.6806 13.4915 58.6806 15.3428 58.6806 16.2685C59.5069 16.9885 61.2628 18.5313 62.0891 19.2513C62.7088 20.4855 64.0516 22.7483 64.1549 24.0854C64.3614 25.4225 64.0516 26.7596 63.2253 27.6853C62.8121 28.1996 62.2957 28.5081 61.676 28.7138L30.1734 39.4106C29.5537 39.6163 28.934 39.7192 28.3143 39.822ZM51.5538 3.72035C50.9341 3.61749 50.4177 3.72035 49.798 3.72035L21.2908 7.42308C18.502 7.73164 15.9198 9.06874 14.0607 11.023C12.2015 13.08 11.3752 15.6514 11.8916 18.4284L12.8212 22.954L16.0231 26.1425L14.4738 30.668L15.5067 35.9136C16.8494 43.0105 25.0091 46.8161 31.5162 44.1419L63.3286 32.0051C64.3614 31.5937 65.1877 30.9766 65.9107 30.1538C67.2535 28.5081 67.6666 26.3482 67.3567 24.1883C67.1502 23.0569 66.8403 21.9255 66.2206 20.8969L64.4647 17.5028L61.8825 15.24L61.7793 12.4629L60.2299 9.37731C58.3708 6.39455 55.0656 4.02891 51.5538 3.72035Z" fill="#192744"/>
<path d="M3.52541 23.5711C1.97611 23.5711 0.220226 24.8054 0.323513 26.451C0.4268 27.2738 1.14981 27.891 1.87282 28.0967C3.42212 28.5081 5.28129 27.6853 5.79772 26.1425C6.31416 24.5996 4.86814 23.4683 3.52541 23.5711ZM2.90569 9.68585C2.07939 9.68585 1.14981 9.89156 0.530087 10.5087C-1.01922 12.2572 1.14981 13.8 2.90569 13.3886C5.69444 12.9772 6.0043 9.89156 2.90569 9.68585ZM13.5442 1.35469C12.4081 1.14898 10.7555 2.07467 11.3752 3.41177C11.9949 4.54316 13.8541 4.74887 14.887 4.02889C16.4363 3.00035 14.9903 1.45754 13.5442 1.35469ZM27.0748 0.017591C25.4223 -0.188117 24.4927 1.45754 25.9387 2.48608C26.765 3.10321 28.6241 3.1032 28.934 1.86896C29.0373 0.840421 27.9011 0.120445 27.0748 0.017591Z" fill="#25DA78"/>
<path d="M59.8168 39.102C58.1642 39.3077 58.0609 41.5705 59.0938 42.7019C60.0234 43.9362 61.7793 43.8333 62.1924 42.2905C62.399 40.7477 61.3661 38.8963 59.8168 39.102ZM70.0422 34.3708C68.6995 34.5765 68.8028 36.325 69.4225 37.2507C70.0422 38.1763 71.5915 38.7935 72.108 37.4564C72.6244 36.2221 71.4882 34.3708 70.0422 34.3708ZM72.9343 24.7025C71.5915 24.8054 71.9014 26.6567 72.7277 27.2738C73.4507 28.0967 74.8967 28.3024 75 26.9653C75 25.9367 74.0704 24.8054 72.9343 24.7025ZM68.0798 14.52C67.4601 14.52 67.0469 15.0342 67.1502 15.6514C67.3568 16.4742 68.1831 17.3999 69.1126 17.297C69.7324 17.297 70.0422 16.6799 69.9389 16.1656C69.7324 15.3428 68.9061 14.6228 68.0798 14.52Z" fill="#25DA78"/>
<path d="M31.3096 15.7542L25.2157 15.6514C23.9762 15.6514 22.6335 16.4742 22.6335 17.8113V19.8684C22.7368 22.5426 27.1781 22.5426 27.2814 19.8684V19.4569H29.1406L26.042 30.8737C25.7321 31.7994 26.1453 32.8279 26.9716 33.3422C28.4176 34.3708 30.5866 33.5479 30.9997 31.7994L33.8918 18.4284C34.0984 16.9885 32.6523 15.7542 31.3096 15.7542Z" fill="#796AE1"/>
<path d="M43.6007 12.8743L38.3331 12.6686C37.3002 12.5657 36.1641 13.3886 36.3706 14.52L36.5772 16.3713C36.8871 18.8398 41.0185 18.8398 40.3988 16.0628H41.9481L40.3988 26.0396C39.9857 28.7138 44.1172 29.8452 44.6336 26.9653L45.9763 15.2399C46.0796 14.0057 44.8402 12.8743 43.6007 12.8743Z" fill="#796AE1"/>
<path d="M53.9295 10.4058L49.3848 10.2001C48.4553 10.0973 47.629 10.9201 47.8355 11.8458L48.1454 13.4915C48.352 14.6229 49.6947 15.4457 50.8309 15.0343C51.5539 14.7257 51.6572 14.0057 51.4506 13.2858H52.7933L52.2769 22.1312C52.2769 22.7483 52.4835 23.3654 52.8966 23.7768C53.8262 24.9082 55.8919 24.7025 55.8919 23.0569C55.8919 22.8511 56.0985 12.7715 56.0985 12.4629C56.0985 11.3315 55.0656 10.4058 53.9295 10.4058Z" fill="#796AE1"/>
</svg>