<svg width="23" height="24" viewBox="0 0 23 24" fill="none" xmlns="http://www.w3.org/2000/svg">
<path fill-rule="evenodd" clip-rule="evenodd" d="M21.2132 10.7574C21.9942 9.97636 21.9942 8.71003 21.2132 7.92898C20.4321 7.14793 19.1658 7.14793 18.3847 7.92898L14.1421 12.1716L9.89945 7.92898C9.1184 7.14793 7.85207 7.14793 7.07102 7.92898C6.28997 8.71003 6.28997 9.97636 7.07102 10.7574L11.3137 15L7.07102 19.2427C6.28997 20.0237 6.28997 21.2901 7.07102 22.0711C7.85207 22.8522 9.1184 22.8522 9.89945 22.0711L14.1421 17.8285L18.3847 22.0711C19.1658 22.8522 20.4321 22.8522 21.2132 22.0711C21.9942 21.2901 21.9942 20.0237 21.2132 19.2427L16.9705 15L21.2132 10.7574Z" fill="#8690A0"/>
</svg>
